<?xml version="1.0" standalone="no"?>
<!DOCTYPE svg PUBLIC "-//W3C//DTD SVG 20010904//EN"
 "http://www.w3.org/TR/2001/REC-SVG-20010904/DTD/svg10.dtd">
<svg version="1.0" xmlns="http://www.w3.org/2000/svg"
 width="1006.000000pt" height="1006.000000pt" viewBox="0 0 1006.000000 1006.000000"
 preserveAspectRatio="xMidYMid meet">
<metadata>
Created by potrace 1.11, written by Peter Selinger 2001-2013
</metadata>
<g transform="translate(0.000000,1006.000000) scale(0.100000,-0.100000)"
fill="#000000" stroke="none">
<path d="M5341 8813 c12 -21 33 -52 46 -70 12 -17 23 -34 23 -36 0 -2 23 -40
52 -83 68 -105 76 -118 363 -564 136 -212 267 -414 290 -450 43 -66 331 -512
479 -740 44 -69 83 -127 86 -130 3 -3 14 -18 24 -34 94 -147 309 -301 516
-370 193 -64 97 -60 1528 -63 1060 -3 1302 -1 1296 9 -4 7 -26 42 -49 78 -23
36 -90 142 -150 235 -102 161 -125 197 -241 375 -26 41 -53 83 -59 93 -5 9
-38 61 -73 115 -35 53 -87 134 -117 180 -346 538 -694 1057 -756 1127 -152
171 -373 297 -610 345 -90 19 -147 20 -1382 20 l-1289 0 23 -37z"/>
<path d="M3395 5602 c-362 -32 -665 -196 -844 -457 -27 -40 -598 -919 -825
-1269 -28 -44 -79 -123 -113 -175 -34 -53 -65 -101 -70 -107 -4 -5 -12 -18
-18 -27 -5 -10 -44 -70 -86 -135 -42 -64 -112 -171 -154 -237 -43 -66 -131
-201 -195 -300 -64 -99 -237 -367 -385 -595 -147 -228 -296 -458 -330 -510
-75 -115 -264 -408 -329 -508 l-46 -72 1317 2 1318 3 95 27 c280 78 471 210
631 435 58 82 469 698 479 718 3 6 40 64 84 130 252 384 646 990 671 1033 6 9
46 71 89 137 43 66 93 143 111 170 55 85 165 256 220 340 28 44 94 145 145
225 51 80 117 182 146 228 55 83 87 133 254 392 117 182 160 238 252 331 84
85 120 117 201 177 31 23 57 44 57 45 0 3 -2639 2 -2675 -1z"/>
<path d="M7567 5604 c-1 -1 -34 -4 -73 -7 -263 -23 -512 -135 -691 -313 -82
-82 -114 -130 -778 -1159 -153 -236 -297 -459 -320 -495 -23 -36 -111 -173
-195 -305 -85 -132 -162 -251 -172 -264 -10 -13 -16 -26 -14 -30 5 -8 2560 -6
2606 2 127 23 234 55 307 93 27 13 52 24 56 24 4 0 46 25 93 57 105 69 204
164 276 263 58 79 343 506 517 775 57 88 121 186 142 218 22 32 39 62 39 67 0
6 4 10 9 10 5 0 11 8 15 18 3 9 32 56 63 104 76 115 556 865 582 909 l20 34
-1240 0 c-683 0 -1241 -1 -1242 -1z"/>
</g>
</svg>
